# xmcd CD database file
#
# Track frame offsets:
#	150
#	8796
#	19873
#	32583
#	42801
#	60941
#	73353
#	90593
#	103231
#	115371
#	126611
#	136851
#
# Disc length: 1945 seconds
#
# Revision: 0
# Processed by: cddbd v1.4PL0 Copyright (c) Steve Scherf et al.
# Submitted via: CDex 1.50beta10
#
DISCID=a307970c
DTITLE=Nara Leão - Com Açucar Com Afeto
DYEAR=1980
DGENRE=Jazz
TTITLE0=A Rita
TTITLE1=Onde É Que Você Estava
TTITLE2=Ela Desatinou
TTITLE3=Trocando Em Miúdos
TTITLE4=O Que Será
TTITLE5=Baioque
TTITLE6=Dueto
TTITLE7=Vence Na Vida Quem Diz Sim
TTITLE8=Samba e Amor
TTITLE9=Homenagem ao Malandro
TTITLE10=Olhos nos Olhos
TTITLE11=Mambembe
EXTD=YEAR: 1980
EXTT0=
EXTT1=
EXTT2=
EXTT3=
EXTT4=
EXTT5=
EXTT6=
EXTT7=
EXTT8=
EXTT9=
EXTT10=
EXTT11=
PLAYORDER=
